<svg version="1" xmlns="http://www.w3.org/2000/svg" width="346.667" height="346.667" viewBox="0 0 260.000000 260.000000"><path d="M89.1 18c-12.8 2.7-23.5 5-23.7 5.3-.2.2 11.7 3.6 26.4 7.6 14.7 4 34.6 9.5 44.2 12.1 9.6 2.7 21.3 5.4 26 6 11 1.4 14.7 4.1 17.4 12.4 1.9 5.8 1.9 5.9-.2 13.5-1.2 4.2-3.1 11.6-4.2 16.6-1.1 4.9-5 21-8.6 35.7-5.1 20.3-7 26.9-8.3 27.3-1.3.4-3 5.8-7 21.6-4.5 17.6-5.2 21.5-4.2 23.5 1.1 2.5.9 4.7-1.1 11.2-.6 2.1-1.5 3.1-2.3 2.8-2-.7-2.6 4.4-2.4 20.9.1 15.7.1 15.7 4.9 10.4.8-.9 10.7-7.4 22-14.4s22.8-14.2 25.5-16c2.8-1.8 10-6.3 16-10 18.9-11.7 22.1-14.1 24-18.1l1.8-3.8-2.6-2.2c-1.4-1.2-3.1-2.4-3.8-2.6-1.7-.6-1.4-8.1 1.7-42.8 7.6-86.4 7.4-83.7 5.8-88.9-1-3.3-2.7-6-5.4-8.5-2.2-2-4.3-3.6-4.8-3.6-.4 0-7.4-1.4-15.7-3-56.3-11.4-91.6-18-95-17.9-1.6 0-13.5 2.3-26.4 4.9zm129.4 26c-.3.5-1 1-1.6 1-.5 0-.9-.5-.9-1 0-.6.7-1 1.6-1 .8 0 1.2.4.9 1zm-4.7 2.6c-.4.3-1.4.7-2.5.9-1 .2-1.9.4-2 .4-.2.1-.5.1-.8.1-.3 0-1.4.5-2.5 1-1.5.8-2 .8-1.8-.2.2-.7 1.2-1.6 2.3-2 2.5-.8 8-1 7.3-.2zM200 51c-1.8 1.1-2.2.7-1.4-1.4.5-1.3 1-1.4 1.8-.6.8.8.7 1.3-.4 2zm-5 2c0 .5-.5 1-1.1 1-.5 0-.7-.5-.4-1 .3-.6.8-1 1.1-1 .2 0 .4.4.4 1zm-6.5 2c-.3.5-1.6 1-2.8 1-1.8 0-1.9-.2-.7-1 2-1.3 4.3-1.3 3.5 0z"/><path d="M74 58.4c0 1.3-.3 3.9-.7 5.7-.7 3.3-.7 3.3-1.4.9-.6-2-.7-1.7-.8 1.7-.1 2.6-.6 4.3-1.3 4.3-.6 0-.8.3-.4.7.4.5 1.4-.1 2.2-1.1 1.3-1.8 1.4-1.4 1.4 4.3 0 3.9-.4 6-1 5.6-.6-.4-1 1-1 3.5s.4 3.9 1 3.5c.6-.4 1 1.3 1 4.4 0 2.7-.4 5.3-1 5.6-.5.3-1 2.2-1 4.1 0 1.9.5 3.4 1 3.4.6 0 1 2 1 4.5s-.4 4.5-.9 4.5-1.1 2.2-1.3 4.9c-.2 3.6 0 4.7 1 4.4.8-.3 1.2.5 1.2 2.4 0 3.6 2.3 6.9 5.3 7.7 1.4.3 14.1 5.1 28.3 10.6 14.2 5.5 26.4 10 27.1 10 2.8 0 3.3-4.2 3.2-26.2-.1-25.9-1.1-42.3-2.2-39.2-1.5 4.3-17 3.5-28-1.5-2.5-1.2-5.1-2.1-5.7-2.1-2.2 0-10.7-4.9-15.2-8.9-8.3-7.4-13.5-17.8-9.5-19.4.7-.3.5-.6-.5-.6-1.2-.1-1.8.6-1.8 2.3zM62 64.3c0 2.4.5 4.8 1.2 5.5 1.7 1.7 4.5 1.5 5.2-.4 1.8-4.6-.5-9.4-4.5-9.4-1.6 0-1.9.7-1.9 4.3zM152.3 90c0 2.5.2 3.5.4 2.2.2-1.2.2-3.2 0-4.5-.2-1.2-.4-.2-.4 2.3zM152.3 108.5c0 2.2.2 3 .4 1.7.2-1.2.2-3 0-4-.3-.9-.5.1-.4 2.3zM141.5 142.4c-1.2 1.7-1.5 3.5-1 5.6 1 4.3 2.2 3.7 3.4-1.8 1.2-5.5 0-7.5-2.4-3.8zM87.8 144.6c.6.3 1.2 1.2 1.2 2 0 .7 1.1 1.6 2.5 2 3.7.9 2.2 1.8-2.5 1.6-4.1-.3-4.9.5-2.8 2.6.9.9.6 1.2-1.5 1.2-1.5 0-2.7.5-2.7 1.1 0 .5-1.6 1.7-3.6 2.5-4.1 1.7-4 3.1.4 5.7 2.8 1.7 3.4 1.7 5.3.4 2.1-1.5 2.1-1.5-1.2-3.3-2.5-1.3-3-1.9-1.7-2.2.9-.2 2.6.2 3.7.7 1.1.6 2.7.8 3.5.5 1.7-.7 2.2-3.4.6-3.4-.5 0-1-.5-1-1.1 0-.5.8-.9 1.8-.8 3.2.3 4.2-.1 4.2-1.6 0-1.8 4.5-3.9 7.5-3.6 3.8.3-6.8-3.9-10.9-4.4-2.2-.3-3.5-.2-2.8.1zM57 150.9c-1.8 1.2-1.3 1.8 2 2.3 1.7.2 2.5-.2 2.5-1.2 0-1.8-2.4-2.4-4.5-1.1zM109 151.9c0 .5-1.6 1.5-3.5 2.2-3.3 1.2-4.9 3.9-2.4 3.9.7 0 2.7.9 4.6 2.1 2.8 1.8 3.2 2.4 2.1 3.6-.6.8 1.7 0 5.3-1.9 3.5-1.8 6.4-4 6.4-4.8 0-.9-2-2-5-3-2.7-.8-5.6-1.9-6.2-2.3-.8-.5-1.3-.4-1.3.2zM54 154.4c0 .2.7.7 1.6 1 .8.3 1.2.2.9-.4-.6-1-2.5-1.4-2.5-.6zM67 161.5c1.4.8 3.2 1.4 4 1.4.8 0 0-.6-1.9-1.4-4.2-1.9-5.4-1.9-2.1 0zM86.5 164.1c-1.1 1.7-.2 1.8 1.9.3 1.7-1.2 1.7-1.4.4-1.4-.9 0-2 .5-2.3 1.1zM74.5 165c.3.5 1.1 1 1.6 1 .6 0 .7-.5.4-1-.3-.6-1.1-1-1.6-1-.6 0-.7.4-.4 1zM99.2 169.1c-1.2 1.9-1.1 1.9.7 1 2.6-1.4 3.6-3.1 1.9-3.1-.7 0-1.9.9-2.6 2.1zM25.6 172.9c-.3.4-.2 2.8.2 5.2.7 4.1 1.2 4.6 7.7 8.4 3.9 2.3 10.6 6.1 15 8.5 4.4 2.4 10.3 5.7 13 7.3 11 6.5 20.8 11.7 22.1 11.7 1 0 1.4-1.5 1.4-5.4v-5.4l-17.2-9.5C47.9 182.8 27.5 172 26.7 172c-.3 0-.8.4-1.1.9zM91.2 204l-4.2 3v15.9l6.9 4.1c7.5 4.3 9.5 4.7 12.5 2.5 3-2.3 4.9-1.9 13.7 3 10.8 6 11.9 5.5 11.6-5.3l-.2-7.7-17.5-9.2c-9.6-5.1-17.8-9.3-18.1-9.3-.3 0-2.5 1.4-4.7 3z"/></svg>