<?xml version="1.0" encoding="utf-8"?><svg viewBox="0 0 16 16" xmlns="http://www.w3.org/2000/svg" xmlns:xlink="http://www.w3.org/1999/xlink"><style>:root>svg{display:none}:root>svg:target{display:block}</style><svg fill="none" viewBox="0 0 15 14" id="telegram" xmlns="http://www.w3.org/2000/svg"><path d="M.259 6.374l3.668 1.828a.47.47 0 00.445-.014L7.637 6.29 5.661 8.04a.47.47 0 00-.158.351v4.266c0 .45.574.64.843.282l1.586-2.108 3.921 2.233c.275.158.628 0 .691-.315L14.99.562a.469.469 0 00-.63-.528L.298 5.518a.47.47 0 00-.04.856zM13.903 1.22l-2.15 10.71-3.715-2.116a.47.47 0 00-.607.126l-.99 1.316V8.604l5.343-4.735c.424-.374-.063-1.04-.546-.756L4.12 7.25 1.624 6.007 13.903 1.22z" fill="#fff"/></svg><svg fill="none" viewBox="0 0 16 16" id="telegram-2x" xmlns="http://www.w3.org/2000/svg"><g clip-path="url(#bclip0)"><path d="M.649 7.347l3.668 1.828a.47.47 0 00.445-.014l3.265-1.899-1.976 1.752a.47.47 0 00-.158.351v4.266c0 .45.574.639.844.281l1.585-2.108 3.921 2.233c.275.159.628 0 .692-.315L15.38 1.536a.469.469 0 00-.63-.529L.688 6.491a.47.47 0 00-.039.856zM14.293 2.19l-2.15 10.71-3.715-2.115a.47.47 0 00-.607.125l-.99 1.317V9.576l5.344-4.735c.423-.375-.064-1.04-.547-.757L4.51 8.224 2.015 6.98l12.278-4.789z" fill="#fff"/></g><defs><clipPath id="bclip0"><path fill="#fff" transform="translate(.39 .35)" d="M0 0h15v15H0z"/></clipPath></defs></svg><svg fill="none" viewBox="0 0 14 16" id="viber" xmlns="http://www.w3.org/2000/svg"><path d="M13.61 8.691c.447-3.767-.215-6.145-1.41-7.22-1.93-1.837-8.442-2.11-10.75.081C.414 2.624.05 4.197.01 6.145c-.04 1.948-.088 5.597 3.313 6.587h.003l-.003 1.512s-.023.613.368.736c.448.145.65-.14 2.042-1.802 2.327.202 4.115-.26 4.318-.328.47-.158 3.13-.51 3.56-4.159zM5.96 12.114s-1.473 1.837-1.93 2.314c-.15.155-.315.14-.313-.167l.011-2.51c-2.883-.826-2.713-3.934-2.681-5.56.03-1.626.328-2.957 1.206-3.854C4.278.439 9.989.863 11.444 2.23c1.779 1.577 1.145 6.032 1.15 6.184-.366 3.046-2.521 3.24-2.918 3.372-.169.056-1.74.46-3.715.328z" fill="#fff"/><path d="M6.776 2.694c-.24 0-.24.375 0 .378 1.867.014 3.405 1.315 3.422 3.702 0 .252.368.249.365-.003-.02-2.572-1.7-4.063-3.787-4.077z" fill="#fff"/><path d="M9.232 6.379c-.006.248.363.26.366.008.03-1.418-.844-2.586-2.487-2.709-.24-.018-.266.36-.026.378 1.425.108 2.176 1.08 2.147 2.323zM8.838 7.992c-.308-.18-.623-.068-.753.108l-.272.352c-.138.178-.396.155-.396.155-1.884-.498-2.388-2.47-2.388-2.47s-.023-.267.15-.41l.34-.28c.17-.136.277-.46.104-.78-.462-.836-.773-1.124-.931-1.345-.166-.208-.416-.255-.676-.115H4.01c-.54.317-1.132.908-.943 1.518.323.642.917 2.69 2.81 4.238.889.732 2.296 1.482 2.894 1.655l.005.009c.59.196 1.162-.42 1.467-.976v-.004c.136-.27.09-.525-.107-.692a7.366 7.366 0 00-1.298-.963z" fill="#fff"/><path d="M7.368 5.073c.6.035.892.349.923.993.012.252.377.234.366-.017-.04-.842-.479-1.31-1.269-1.354-.24-.015-.263.364-.02.378z" fill="#fff"/></svg><svg fill="none" viewBox="0 0 15 15" id="whatsapp" xmlns="http://www.w3.org/2000/svg"><path d="M12.771 2.178A7.434 7.434 0 007.492 0c-1.99 0-3.868.773-5.286 2.176A7.359 7.359 0 000 7.431v.003c0 1.199.315 2.407.913 3.51L.02 15l4.102-.933c1.04.524 2.198.8 3.368.8h.003c1.99 0 3.867-.773 5.286-2.177a7.35 7.35 0 002.207-5.254c0-1.967-.786-3.834-2.215-5.258zM7.492 13.696H7.49c-1.05 0-2.09-.264-3.008-.762l-.194-.105-2.728.62.593-2.693-.114-.197C1.47 9.58 1.17 8.5 1.17 7.434 1.173 3.982 4.009 1.17 7.492 1.17c1.683 0 3.265.653 4.453 1.837 1.206 1.202 1.87 2.774 1.87 4.428-.002 3.452-2.838 6.26-6.323 6.26z" fill="#fff"/><path d="M5.454 4.156h-.329a.63.63 0 00-.457.214c-.157.17-.6.584-.6 1.424s.615 1.653.7 1.767c.086.114 1.186 1.894 2.928 2.579 1.448.569 1.742.455 2.056.427.315-.028 1.014-.413 1.157-.812.143-.399.143-.74.1-.812-.043-.071-.157-.114-.328-.2-.172-.085-1.012-.505-1.169-.562-.157-.057-.271-.086-.385.085-.115.171-.451.566-.551.68-.1.114-.2.129-.372.043-.171-.086-.718-.27-1.372-.851-.51-.453-.863-1.03-.963-1.201-.1-.171-.011-.264.075-.349.077-.076.18-.18.267-.28.085-.1.11-.172.167-.286.057-.114.028-.213-.015-.299-.042-.085-.371-.93-.524-1.268-.128-.284-.263-.294-.385-.299z" fill="#fff"/></svg></svg>